<?xml version="1.0" encoding="UTF-8"?>
<svg width="648px" height="93px" viewBox="0 0 648 93" version="1.1" xmlns="http://www.w3.org/2000/svg" xmlns:xlink="http://www.w3.org/1999/xlink">
    <!-- Generator: Sketch 52.6 (67491) - http://www.bohemiancoding.com/sketch -->
    <title>amnh-logo-white</title>
    <desc>Created with Sketch.</desc>
    <defs>
        <polygon id="path-1" points="0.2515 0.685 1.2515 0.685 1.2515 89.94 0.2515 89.94"></polygon>
    </defs>
    <g id="Page-1" stroke="none" stroke-width="1" fill="none" fill-rule="evenodd">
        <g id="amnh-logo-white" transform="translate(0.000000, 1.000000)">
            <g id="Group-3" transform="translate(242.000000, 0.000000)">
                <g id="Stroke-1-Clipped">
                    <mask id="mask-2" fill="white">
                        <use xlink:href="#path-1"></use>
                    </mask>
                    <use id="path-1" stroke="#FFFFFF" stroke-width="3" fill="#D8D8D8" xlink:href="#path-1"></use>
                    <path d="M0.752,0.685 L0.751,90" id="Stroke-1" stroke="#FFFFFF" stroke-width="3" mask="url(#mask-2)"></path>
                </g>
            </g>
            <path d="M539.919,85.405 C536.936,85.405 534.741,84.874 534.053,84.731 L534.241,81.494 C534.874,81.702 537.209,82.624 539.919,82.624 C543.635,82.624 546.781,81.239 546.781,78.128 C546.781,76.177 545.256,74.911 541.839,73.706 C541.552,73.593 539.987,73.039 539.435,72.851 C536.331,71.742 533.607,69.856 533.607,66.125 C533.607,61.922 537.488,59.236 543.296,59.236 C545.508,59.236 547.844,59.59 548.589,59.672 L548.435,62.667 C548.119,62.592 545.713,61.881 543.204,61.881 C539.122,61.881 536.842,63.425 536.842,65.887 C536.842,68.399 539.204,69.377 541.447,70.159 C542.125,70.411 543.278,70.809 543.908,71.027 C548.841,72.753 550.093,75.653 550.093,77.876 C550.093,82.519 546.083,85.405 539.919,85.405 Z M272.894,60.751 L278.962,60.751 L278.962,53.782 L281.373,53.782 L281.373,60.751 L289.167,60.751 L289.167,63.494 L270.464,63.494 L270.464,53.381 L272.894,53.381 L272.894,60.751 Z M279.637,67.725 C273.539,67.725 270.144,71.027 270.144,76.521 C270.144,81.562 273.74,85.841 279.963,85.841 C285.429,85.841 289.422,83.134 289.422,77.103 C289.422,71.854 285.892,67.725 279.637,67.725 Z M279.917,70.649 C284.332,70.649 286.655,73.437 286.655,76.926 C286.655,81.28 283.596,82.9 279.665,82.9 C275.269,82.9 272.874,79.979 272.874,76.776 C272.874,73.039 275.173,70.649 279.917,70.649 Z M634.546,76.079 L634.546,85.061 L631.329,85.061 L631.329,76.079 L622.611,59.631 L626.192,59.631 L632.894,72.743 L633.143,72.743 L640.077,59.631 L643.454,59.631 L634.546,76.079 Z M597.048,72.198 C597.048,63.981 592.8,59.28 585.216,59.28 C578.482,59.28 572.788,64.087 572.788,72.545 C572.788,79.931 576.269,85.405 584.483,85.405 C591.556,85.405 597.048,80.718 597.048,72.198 Z M593.555,72.535 C593.555,79.101 589.712,82.559 584.739,82.559 C578.39,82.559 576.287,77.713 576.287,72.198 C576.287,65.635 580.371,62.095 584.926,62.095 C590.287,62.095 593.555,65.734 593.555,72.535 Z M461.464,85.061 L461.464,59.631 L464.684,59.631 L464.684,82.318 L474.328,82.318 L474.328,85.061 L461.464,85.061 Z M563.555,62.371 L563.555,85.061 L560.318,85.061 L560.318,62.371 L552.595,62.371 L552.595,59.631 L571.324,59.631 L571.324,62.371 L563.555,62.371 Z M370.241,62.371 L370.241,85.061 L367.009,85.061 L367.009,62.371 L359.27,62.371 L359.27,59.631 L378.008,59.631 L378.008,62.371 L370.241,62.371 Z M522.957,85.062 L526.19,85.062 L526.19,59.631 L522.957,59.631 L522.957,85.062 Z M380.16,34.553 L383.284,34.553 L383.284,9.945 L380.16,9.945 L380.16,34.553 Z M555.168,34.896 C553.175,34.896 550.707,34.568 549.491,34.237 L549.678,31.092 C550.68,31.465 552.637,32.199 555.595,32.199 C558.62,32.199 561.796,30.739 561.796,27.602 C561.796,25.007 559.655,24.193 556.01,23.077 C552.252,21.93 549.063,20.54 549.063,16.331 C549.063,12.091 552.69,9.564 558.442,9.564 C560.001,9.564 562.086,9.755 563.549,9.984 L563.4,12.873 C562.732,12.712 560.936,12.121 558.255,12.121 C554.611,12.121 552.199,13.662 552.199,16.143 C552.199,18.525 554.153,19.372 556.795,20.225 C561.078,21.622 565.011,22.719 565.011,27.415 C565.011,32.023 560.709,34.896 555.168,34.896 Z M393.471,85.405 C386.858,85.405 383.19,82.345 383.19,76.409 L383.19,59.631 L386.413,59.631 L386.413,75.868 C386.413,80.524 389.107,82.77 393.712,82.77 C399.231,82.77 401.094,79.592 401.094,75.245 L401.094,59.631 L404.265,59.631 L404.265,75.442 C404.265,80.779 401.188,85.405 393.471,85.405 Z M601.211,34.896 C594.81,34.896 591.261,31.914 591.261,26.187 L591.261,9.945 L594.395,9.945 L594.395,25.654 C594.395,30.155 596.991,32.331 601.438,32.331 C606.796,32.331 608.594,29.259 608.594,25.045 L608.594,9.945 L611.672,9.945 L611.672,25.244 C611.672,30.397 608.693,34.896 601.211,34.896 Z M532.435,34.896 C526.038,34.896 522.483,31.914 522.483,26.187 L522.483,9.945 L525.613,9.945 L525.613,25.661 C525.613,30.166 528.213,32.331 532.667,32.331 C538.01,32.331 539.818,29.263 539.818,25.05 L539.818,9.945 L542.885,9.945 L542.885,25.248 C542.885,30.407 539.918,34.896 532.435,34.896 Z M510.443,85.061 L510.443,69.226 L491.943,69.226 L491.943,85.061 L488.631,85.061 L488.631,52.05 L491.943,52.05 L491.943,66.333 L510.443,66.333 L510.443,52.05 L513.78,52.05 L513.78,85.061 L510.443,85.061 Z M327.95,81.443 L327.943,52.05 L331.274,52.05 L331.274,85.061 L326.326,85.061 L309.154,55.525 L309.061,55.525 L309.061,85.061 L305.743,85.061 L305.743,52.05 L310.687,52.05 L327.855,81.443 L327.95,81.443 Z M512.952,34.553 L508.781,5.973 L508.593,5.973 C508.307,7.159 499.412,34.553 499.412,34.553 L495.383,34.553 L486.254,5.973 L486.118,5.973 C485.973,8.421 482.666,34.553 482.666,34.553 L479.296,34.553 L483.555,2.608 L488.47,2.608 L497.465,30.86 L497.56,30.86 L506.554,2.608 L511.489,2.608 L516.269,34.553 L512.952,34.553 Z M458.263,34.553 C458.263,34.553 446.301,15.149 445.451,13.559 L445.28,13.559 L445.28,34.553 L442.229,34.553 L442.229,9.945 L446.631,9.945 L459.456,30.817 L459.693,30.817 L459.693,9.945 L462.767,9.945 L462.767,34.553 L458.263,34.553 Z M456.317,85.061 L446.293,59.631 L442.681,59.631 L432.397,85.061 L435.771,85.061 L438.031,79.346 L450.548,79.346 L452.747,85.061 L456.317,85.061 Z M449.506,76.753 L439.055,76.753 L444.284,63.15 L444.345,63.15 L449.506,76.753 Z M360.066,85.061 L350.033,59.631 L346.407,59.631 L336.138,85.061 L339.518,85.061 L341.761,79.346 L354.288,79.346 L356.487,85.061 L360.066,85.061 Z M353.256,76.753 L342.795,76.753 L348.022,63.15 L348.067,63.15 L353.256,76.753 Z M436.852,34.553 L427.154,9.945 L423.645,9.945 L413.709,34.553 L416.977,34.553 L419.151,29.025 L431.275,29.025 L433.407,34.553 L436.852,34.553 Z M430.277,26.516 L420.149,26.516 L425.2,13.351 L425.257,13.351 L430.277,26.516 Z M403.387,34.896 C395.717,34.896 391.501,30.446 391.501,22.764 C391.501,15.674 395.451,9.755 404.325,9.755 C406.27,9.755 408.359,9.984 410.157,10.452 L409.871,13.351 C407.796,12.686 405.894,12.363 403.947,12.363 C397.759,12.363 394.904,17.028 394.904,22.444 C394.904,28.625 398.035,32.136 404.136,32.136 C406.184,32.136 408.465,31.669 410.157,30.817 L410.434,33.612 C408.465,34.416 406.082,34.896 403.387,34.896 Z M621.376,85.061 C621.376,85.061 611.177,73.385 611.177,73.38 C615.875,73.172 619.783,70.629 619.783,65.938 C619.783,61.83 616.59,59.528 610.694,59.528 C607.668,59.528 605.452,59.573 603.992,59.631 L603.992,85.061 L607.219,85.061 L607.219,73.71 L607.467,73.71 L617.188,85.061 L621.376,85.061 Z M616.429,66.323 C616.429,69.301 614.111,71.221 610.387,71.221 C608.804,71.221 608.011,71.126 607.219,71.071 L607.219,62.167 C607.899,62.119 608.76,62.037 610.252,62.037 C614.057,62.037 616.429,63.347 616.429,66.323 Z M429.762,85.061 C429.762,85.061 419.578,73.385 419.578,73.38 C424.272,73.172 428.17,70.629 428.17,65.938 C428.17,61.83 424.969,59.528 419.078,59.528 C416.055,59.528 413.832,59.573 412.365,59.631 L412.365,85.061 L415.599,85.061 L415.599,73.71 L415.844,73.71 L425.576,85.061 L429.762,85.061 Z M424.824,66.323 C424.824,69.301 422.499,71.221 418.764,71.221 C417.195,71.221 416.402,71.126 415.599,71.071 L415.599,62.167 C416.287,62.119 417.14,62.037 418.622,62.037 C422.441,62.037 424.824,63.347 424.824,66.323 Z M374.234,34.553 L364.374,23.25 C368.926,23.05 372.696,20.588 372.696,16.049 C372.696,12.076 369.595,9.844 363.893,9.844 C360.975,9.844 358.831,9.885 357.399,9.945 L357.399,34.553 L360.534,34.553 L360.534,23.574 L360.77,23.574 L370.185,34.553 L374.234,34.553 Z M369.463,16.422 C369.463,19.308 367.211,21.159 363.603,21.159 C362.073,21.159 361.302,21.072 360.534,21.012 L360.534,12.4 C361.195,12.352 362.018,12.272 363.462,12.272 C367.153,12.272 369.463,13.537 369.463,16.422 Z M571.241,34.553 L571.241,9.945 L584.36,9.945 L584.36,12.507 L574.364,12.507 L574.364,20.495 L583.919,20.495 L583.919,23.007 L574.364,23.007 L574.364,31.948 L584.36,31.948 L584.36,34.553 L571.241,34.553 Z M336.764,34.553 L336.764,9.945 L349.88,9.945 L349.88,12.507 L339.899,12.507 L339.899,20.495 L349.45,20.495 L349.45,23.007 L339.899,23.007 L339.899,31.948 L349.88,31.948 L349.88,34.553 L336.764,34.553 Z M644.208,34.553 L641.371,13.589 L641.232,13.589 L634.189,34.553 L630.539,34.553 L623.719,13.589 L623.574,13.589 L620.926,34.553 L617.808,34.553 L621.298,9.945 L625.627,9.945 L632.374,31.056 L632.528,31.056 L639.421,9.945 L643.839,9.945 L647.39,34.553 L644.208,34.553 Z M326.191,34.553 L323.343,13.589 L323.203,13.589 L316.149,34.553 L312.51,34.553 L305.698,13.589 L305.558,13.589 L302.902,34.553 L299.782,34.553 L303.275,9.945 L307.595,9.945 L314.359,31.056 L314.5,31.056 L321.398,9.945 L325.805,9.945 L329.365,34.553 L326.191,34.553 Z M295.297,34.553 L283.534,2.608 L279.399,2.608 L267.621,34.553 L271.111,34.553 L274.003,26.615 L288.815,26.615 L291.611,34.553 L295.297,34.553 Z M287.812,23.949 L274.947,23.949 L281.261,6.212 L281.409,6.212 L287.812,23.949 Z" id="Fill-4" fill="#FFFFFE" fill-rule="nonzero"></path>
            <path d="M219.004,12.356 C219.004,13.598 218.852,14.815 218.598,15.804 L216.366,15.677 C216.721,14.689 217,13.344 217,12.153 C217,10.099 216.163,8.4 214.059,8.4 C210.205,8.4 211.726,16.108 206.274,16.108 C203.459,16.108 201.43,13.877 201.43,10.023 C201.43,8.983 201.532,7.943 201.735,6.929 L203.814,7.056 C203.535,8.045 203.358,9.135 203.358,10.15 C203.358,12.483 204.423,13.699 206.02,13.699 C209.723,13.699 208.379,5.965 213.729,5.965 C216.797,5.965 219.004,8.374 219.004,12.356 Z M203.459,28.353 C203.459,28.936 203.485,29.443 203.51,29.9 L209.342,29.9 C209.367,29.646 209.393,29.138 209.393,28.454 C209.393,25.994 208.15,24.574 206.324,24.574 C204.271,24.574 203.459,25.867 203.459,28.353 Z M218.776,23.991 L211.092,29.798 L211.092,29.9 L218.776,29.9 L218.776,32.233 L201.659,32.233 C201.583,31.066 201.557,29.823 201.557,27.947 C201.557,24.574 202.749,22.14 206.02,22.14 C208.937,22.14 210.635,24.371 210.839,27.363 C211.447,26.857 212.106,26.324 212.664,25.867 L218.776,21.024 L218.776,23.991 Z M206.806,44.557 C205.945,44.886 205.133,45.114 204.245,45.318 L204.245,45.368 C205.082,45.571 205.97,45.824 206.832,46.154 L212.918,48.36 L212.918,42.325 L206.806,44.557 Z M218.776,40.271 L214.769,41.691 L214.769,48.968 L218.776,50.389 L218.776,52.772 L201.659,46.535 L201.659,43.948 L218.776,37.659 L218.776,40.271 Z M218.776,66.364 L201.659,66.364 L201.659,57.565 L203.586,57.565 L203.586,64.032 L209.013,64.032 L209.013,57.87 L210.889,57.87 L210.889,64.032 L216.823,64.032 L216.823,57.565 L218.776,57.565 L218.776,66.364 Z M212.613,77.014 L218.776,77.014 L218.776,79.347 L212.613,79.347 L201.659,84.698 L201.659,82.137 L207.44,79.424 C208.455,78.942 209.444,78.511 210.407,78.131 L210.407,78.105 C209.367,77.7 208.252,77.167 207.136,76.634 L201.659,73.997 L201.659,71.563 L212.613,77.014 Z M67.412,84.923 C54.544,84.924 40.564,77.321 37.716,60.379 L44.464,60.377 C46.393,72.09 55.499,79.886 67.411,79.886 C80.022,79.882 90.273,70.028 90.269,57.92 C90.264,45.491 80.278,35.755 67.533,35.755 C60.376,35.757 53.57,38.941 48.281,44.742 L42.859,42.998 L50.673,5.098 L89.423,5.085 L89.424,10.121 L56.03,10.132 L50.853,35.55 L52.95,34.525 C58.187,31.965 62.795,30.822 67.892,30.82 C84.239,30.82 97.039,42.723 97.044,57.918 C97.046,65.057 94.03,71.795 88.551,76.884 C82.975,82.066 75.47,84.921 67.42,84.923 L67.412,84.923 Z M15.598,83.53 L22.378,83.526 L22.352,5.112 L0,5.12 L0.001,10.157 L15.574,10.151 L15.598,83.53 Z M140.869,78.239 C140.813,77.966 140.556,76.859 140.434,76.168 C140.372,75.867 140.51,75.661 140.661,75.539 C140.274,74.731 140.361,74.155 140.384,73.711 C140.404,73.499 140.404,72.982 140.404,72.785 C140.301,72.572 140.198,72.372 140.25,72.012 C140.26,71.784 140.274,71.589 140.274,71.395 C140.274,70.88 140.198,70.466 140.082,69.978 C139.993,69.634 139.835,69.155 139.835,68.796 C139.835,68.676 139.871,68.455 139.92,68.348 C140.014,68.145 140.014,67.967 140.014,67.772 C140.014,67.582 139.928,67.306 139.928,66.825 C139.928,66.036 139.616,65.316 139.616,64.697 C139.616,64.362 139.671,64.084 139.746,63.786 C139.865,63.373 139.881,62.803 139.974,62.559 C139.854,62.447 139.737,62.265 139.737,61.934 C139.737,61.561 139.8,61.236 139.8,60.854 C139.8,60.529 139.768,60.062 139.768,59.571 C139.768,59.418 139.907,59.237 139.907,58.97 C139.907,58.711 139.865,58.448 139.9,58.175 C139.928,57.917 139.949,57.6 139.949,57.284 C139.949,57.106 139.941,56.918 139.941,56.74 C138.626,56.724 137.946,56.753 137.62,57.106 C137.202,57.515 137.049,58.448 136.983,58.83 C136.91,59.212 136.899,59.381 136.77,59.693 C136.792,59.859 136.926,60.116 136.926,60.282 C136.926,60.77 136.566,60.876 136.566,61.906 C136.566,62.559 136.537,63.211 136.053,64.049 C135.733,64.587 135.517,65.241 135.517,65.87 C135.517,66.345 135.309,66.646 135.005,67.031 C135.026,67.162 135.005,67.553 134.808,67.713 L134.795,67.722 C135.271,68.764 134.989,70.563 134.526,71.108 C134.231,71.452 134.245,71.756 134.245,72.125 C134.245,72.572 134.296,72.725 134.296,73.245 C134.296,73.983 133.97,75.241 133.97,75.964 C133.97,76.505 134.138,76.774 134.138,77.018 C134.138,77.146 134.08,77.265 134.026,77.375 C134.075,77.444 134.116,77.516 134.162,77.582 C135.786,77.294 136.489,77.885 136.951,78.774 C137.454,78.743 137.666,78.93 137.755,79.102 C137.755,79.102 137.755,79.128 137.774,79.131 C137.924,79.128 138.166,79.128 138.204,79.112 C138.964,78.93 139.387,79.305 139.573,79.456 C140.082,79.294 140.474,79.352 140.474,79.352 C140.537,79.284 140.588,79.217 140.661,79.155 C140.625,78.814 140.625,78.495 140.869,78.239 Z M190.187,42.869 C190.142,43.251 190.242,45.758 190.099,46.13 C189.919,46.649 189.738,46.842 189.509,47.06 C189.701,47.397 189.766,47.669 189.766,47.932 C189.766,48.682 189.27,49.165 189.26,49.456 C189.246,49.618 189.229,50.373 189.205,50.542 C189.646,50.553 189.982,50.924 189.817,51.392 C189.828,51.426 190.053,51.72 190.053,51.98 C190.053,52.744 189.627,53.36 189.486,53.757 C189.378,54.152 189.335,54.825 189.151,55.254 C189.061,55.457 188.773,56.086 188.726,56.242 C188.656,56.467 188.537,57.037 188.031,57.453 C187.689,57.734 187.496,57.954 187.371,58.53 C186.949,60.513 186.164,61.045 185.777,62.507 C185.527,63.504 184.879,63.986 184.069,64.362 C183.926,64.697 184.043,65.338 183.585,65.55 C183.517,66.135 182.949,66.23 182.502,66.733 C182.486,67.021 182.692,67.835 182.692,68.338 C182.692,69.011 182.519,69.39 181.477,70.116 C181.118,70.357 180.869,70.751 180.59,71.158 C180.189,71.761 179.607,72.603 178.831,72.847 C177.334,74.359 174.894,76.818 173.297,77.084 C172.896,77.904 172.499,78.48 171.679,78.48 C171.636,78.558 171.482,78.84 171.054,79.055 C170.386,79.39 169.438,79.775 168.924,79.897 C168.595,79.985 168.26,80.303 168.025,80.464 C167.696,80.729 167.387,80.826 166.995,81.124 C166.361,81.608 165.639,82.15 164.604,82.271 C164.234,82.325 164.153,82.494 163.954,82.654 C163.7,82.866 163.322,82.826 163.072,82.788 C162.901,82.979 162.749,83.245 161.811,83.083 C161.239,83.805 160.658,83.824 159.964,83.746 C159.603,84.118 159.102,84.133 158.668,84.058 C158.092,84.443 157.933,84.477 157.484,84.477 C156.982,84.477 156.526,84.008 156.269,84.008 C156.074,84.008 155.942,84.255 155.577,84.528 C155.05,84.91 154.106,85.016 153.205,85.079 C152.968,85.184 152.481,85.401 151.766,85.401 C150.768,85.401 149.793,85.085 148.984,85.085 C148.051,85.085 147.415,85.679 146.638,85.679 C145.97,85.679 145.998,85.469 144.761,85.3 C144.232,85.235 143.698,85.157 143.133,84.91 C142.939,84.875 142.693,84.91 142.59,84.954 C142.487,85.169 142.308,85.263 142.02,85.263 C141.757,85.263 141.419,85.035 141.419,84.822 C141.419,84.822 136.234,83.507 135.97,83.458 C135.517,83.551 135.249,83.526 134.989,83.401 C134.301,83.048 132.514,82.215 132.514,82.215 C131.582,83.94 130.038,84.503 129.06,84.816 C128.303,85.539 127.147,86.03 126.105,85.945 C125.932,86.014 125.705,86.145 125.261,86.145 C124.671,86.145 124.174,85.898 123.827,85.898 C123.611,85.898 123.299,85.776 123.207,85.457 C122.479,85.219 122.217,83.977 123.159,83.417 C123.386,83.299 123.559,83.089 123.775,82.844 C123.84,82.754 124.268,82.25 124.538,82.062 C125.013,81.718 125.716,81.142 126.168,80.701 C126.335,80.526 126.534,80.379 126.718,80.357 C126.782,80.041 126.858,79.762 127.205,79.497 C126.697,79.112 126.335,78.93 125.828,79.05 C125.656,79.087 125.246,79.061 125.133,78.652 C125.123,78.648 124.944,78.561 124.875,78.508 C124.268,78.652 123.775,78.292 123.913,77.582 C123.701,77.346 123.483,77.112 123.349,77.049 C122.125,77.112 122.118,76.186 122.017,75.801 C121.281,75.397 120.577,74.859 119.901,74.23 C119.426,73.889 118.943,73.533 118.58,73.179 C118.391,73.013 118.19,72.881 117.974,72.741 C117.498,72.428 116.973,72.093 116.669,71.421 C116.593,71.23 116.37,71.136 116.197,71.017 C115.588,70.592 115.074,70.457 115.074,69.39 C115.074,68.895 115.425,68.624 115.766,68.392 C115.633,66.956 117.33,66.296 118.304,66.296 C119.019,66.296 120.689,66.668 120.786,68.273 C121.392,68.964 122.674,69.843 122.674,69.843 C122.889,70.007 122.889,70.201 122.889,70.347 C123.806,71.124 125.429,71.921 126.396,72.603 C126.706,72.803 126.893,73.12 127.037,73.336 C127.48,74.089 127.83,74.253 128.8,74.346 C128.937,74.084 129.092,73.793 129.112,73.598 C128.43,72.363 129.047,71.158 129.846,70.188 C129.523,69.602 129.488,68.592 130.428,67.738 C130.072,67.088 130.038,66.43 130.038,65.422 C130.038,65.019 130.633,63.392 130.633,62.363 C130.633,61.893 130.072,60.711 131.322,60.231 C130.644,58.448 131.345,57.504 131.598,57.162 C131.777,56.918 131.961,56.658 131.834,56.402 C131.171,55 131.366,53.889 131.847,53.116 C131.258,52.318 131.168,51.27 132.007,50 C131.598,49.136 131.756,48.144 132.429,46.768 C132.1,46.045 132.002,45.49 132.067,45.033 C132.135,44.33 132.392,43.921 132.392,42.392 C132.392,41.59 132.318,41.056 132.262,40.809 C132.193,40.543 131.847,39.437 132.318,38.628 C132.278,38.54 132.155,38.376 132.197,38.131 C132.197,38.131 132.392,36.799 132.402,36.759 C131.908,36.84 131.721,37.098 131.517,37.246 C131.197,37.472 130.73,37.512 130.127,37.472 C129.897,37.628 129.686,37.678 129.439,37.653 C128.937,38.15 128.416,38.035 128.051,37.88 C127.813,38.205 127.635,38.442 127.171,38.575 C125.689,39.013 124.501,39.208 123.258,39.255 C122.544,40.034 121.67,40.181 120.743,40.362 C119.482,40.613 116.67,40.849 115.049,40.893 C113.927,40.995 112.725,41.039 111.444,41.023 C111.444,41.023 111.616,41.422 111.577,41.793 C111.542,42.151 111.361,42.333 111.322,42.666 C111.285,43.085 111.425,43.251 111.425,43.743 C111.425,44.343 111.209,44.723 111.209,45.233 C111.209,45.673 111.444,46.356 111.7,46.99 C111.778,47.175 111.9,47.531 111.884,47.75 C111.512,49.968 111.75,51.517 112.936,52.853 C113.109,53.05 113.385,53.36 113.385,53.786 C113.385,54.524 112.529,56.158 111.737,56.68 C110.736,57.425 109.246,57.256 108.298,56.214 C108.017,55.914 108.092,55.738 108.114,55.513 C108.227,54.825 106.599,54.087 106.466,52.964 C106.352,52.131 106.156,51.361 106.156,49.337 C106.156,48.614 105.905,48.385 105.905,47.597 C105.905,46.99 105.574,46.497 105.574,45.824 C105.574,45.467 105.819,45.164 105.819,44.714 C105.819,44.248 105.527,43.97 105.527,43.443 C105.527,42.925 106.096,42.522 106.096,42.107 C106.096,41.693 105.763,41.59 105.763,40.674 C105.763,39.904 106.204,39.479 106.204,38.906 C106.204,38.628 106.065,38.428 106.065,38.065 C106.065,37.512 106.491,37.294 106.491,35.281 C106.491,34.512 106.685,33.587 107.176,32.853 C106.875,32.316 107.112,32.035 107.489,31.954 C107.303,31.274 107.833,31.054 107.979,30.974 C108.001,30.621 108.001,30.322 108.166,30.045 C108.422,29.577 108.687,29.685 109.001,29.171 C109.203,28.834 108.966,28.429 109.258,27.894 C109.499,27.471 110.22,27.321 110.527,26.406 C110.541,26.331 110.39,25.918 110.465,25.597 C110.541,25.3 110.858,25.225 110.982,24.953 C111.115,24.693 110.956,24.321 111.167,23.955 C111.37,23.598 111.741,23.512 112.04,23.437 C112.181,23.014 112.882,21.844 113.01,21.602 C113.212,21.195 113.494,21.328 113.604,21.087 C113.678,20.876 113.42,20.635 113.604,20.419 C113.775,20.195 113.97,20.457 114.21,20.195 C114.383,19.987 114.324,19.537 114.478,19.366 C114.478,19.366 116.881,16.303 117.152,15.97 C117.539,15.518 117.777,15.633 117.798,15.633 C117.907,15.466 117.974,14.919 118.694,14.355 C119.179,13.946 119.6,14.024 120.31,13.507 C120.84,13.11 120.777,12.771 121.316,12.427 C121.714,12.185 122.206,12.24 122.78,11.838 C123.322,11.47 123.322,11.084 123.713,10.813 C124.087,10.556 124.508,10.586 124.928,10.279 C125.305,9.993 125.377,9.743 125.624,9.421 C125.984,8.984 126.396,9.027 126.761,8.968 C127.99,8.819 129.45,7.673 130.072,7.218 C131.092,6.442 130.967,5.727 132.483,5.507 C133.079,5.408 133.993,5.442 134.116,5.442 C135.423,5.495 135.984,4.005 137.774,3.973 C138.472,3.953 138.953,3.907 139.303,3.842 C139.39,3.327 139.978,3.404 140.51,3.404 C142.295,3.404 143.844,2.554 145.193,2.755 C145.193,2.734 146.982,2.373 147.878,2.867 C148.354,2.734 148.984,2.726 149.368,3.022 C149.685,2.867 150.573,3.022 150.875,3.321 C151.396,3.111 152.182,3.164 152.773,3.388 C153.539,2.908 154.153,3.294 154.389,3.474 C155.275,3.239 157.37,3.186 158.668,4 C159.159,4.293 159.665,4.516 160.184,4.511 C160.538,4.497 160.879,4.74 161.234,5.054 L161.239,5.043 C161.483,4.993 162.03,4.793 162.381,5.245 C163.092,4.998 163.767,5.331 164.701,5.665 C166.278,6.207 166.459,6.845 166.503,6.888 C167.268,6.645 167.872,7.435 168.918,7.704 C169.966,7.994 170.567,8.968 171.852,8.984 C172.328,8.984 172.619,9.401 172.794,9.757 C173.005,10.131 173.752,9.898 174.074,10.279 C174.506,10.768 175.043,11.376 174.204,13.229 C173.892,13.898 173.449,14.375 173.37,14.536 C173.196,14.851 172.432,15.295 171.712,14.851 C170.849,14.341 170.094,14.824 169.43,14.133 C168.733,13.4 167.841,13.451 167.945,12.415 C167.404,11.897 166.838,12.522 166.449,12.006 C165.55,12.115 165.259,11.3 165.202,11.099 C165.145,10.907 164.967,10.804 164.573,10.907 C164.277,11.003 163.539,11.154 162.795,10.375 C162.631,10.208 162.371,10.195 162.151,10.117 C161.921,10.04 160.791,9.723 160.096,9.061 C159.757,9.267 159.418,9.169 159.224,8.941 C158.851,9.08 158.485,9.208 158.092,8.787 C157.559,8.92 157.238,8.587 157.259,8.344 C156.755,8.322 156.322,8.286 155.86,8.272 C155.342,8.247 153.907,8.286 153.422,7.772 C153.384,7.781 152.44,8.185 151.726,8.213 C151.569,8.405 151.16,8.484 151.027,8.488 C150.035,8.488 149.477,7.844 148.097,7.844 C147.263,7.844 146.914,8.23 145.981,8.23 C145.372,8.23 144.977,8.09 144.465,8.09 C143.89,8.09 143.519,8.621 142.744,8.621 C142.151,8.621 141.546,8.405 140.793,8.405 C139.865,8.405 138.939,8.819 138.58,9.149 C138.199,9.496 138.01,9.84 137.225,9.962 C135.333,10.239 134.573,11.78 132.78,11.345 C132.526,12.617 131.485,12.865 130.402,13.132 C129.262,13.4 129.45,14.014 128.489,13.779 C127.447,14.285 127.037,15.295 125.942,15.719 C125.497,15.887 124.777,16.833 124.4,17.298 C123.687,18.157 123.303,18.014 123.128,17.975 C122.642,18.261 122.156,19.606 121.423,19.987 C121.509,20.561 120.792,21.176 120.402,21.411 C120.448,22.534 119.804,22.95 118.781,23.387 C118.599,24.086 118.231,24.163 117.626,24.643 C117.539,24.703 117.518,24.939 117.539,25.162 C117.594,25.998 117.298,26.653 116.009,27.074 C115.983,27.384 115.465,28.169 115.431,28.524 C115.384,28.95 115.174,29.631 114.395,29.925 C114.383,29.95 114.249,30.372 114.249,30.372 C114.249,30.372 114.256,31.054 114.256,31.168 C114.256,31.45 114.211,31.763 113.994,32.065 C113.786,32.385 112.966,33.459 112.775,33.753 C112.529,34.194 112.395,35.284 112.284,35.582 L111.84,36.339 C112.395,36.683 113.262,36.854 113.824,36.893 C115.01,36.478 116.034,36.386 117.029,36.301 C118.041,36.216 118.819,36.311 121.509,35.092 C122.18,34.543 122.977,34.482 123.622,34.432 C124,34.407 124.368,34.371 124.62,34.271 C125.316,33.939 126.265,33.535 127.267,33.354 C127.683,32.788 128.206,32.642 129.139,32.683 C129.488,32.683 129.834,32.65 129.932,32.527 C130.633,31.712 131.017,31.517 131.756,31.738 C132.135,31.381 132.78,31.221 133.287,31.221 C133.534,30.779 134.08,30.568 134.624,30.779 C134.957,30.577 135.389,30.593 135.712,30.783 C136.034,30.587 136.519,30.496 137.029,30.568 C137.031,30.386 137.094,30.211 137.213,30.045 C137.202,29.554 136.818,29.386 136.792,28.6 C135.609,27.648 135.434,26.949 135.434,26.034 C135.434,25.679 135.444,24.562 135.786,24.451 C135.584,23.642 136.234,23.099 136.234,22.553 C136.234,22.015 136.629,21.927 136.715,21.908 C136.967,21.509 137.979,21.015 139.121,21.015 C139.993,21.015 140.474,21.184 141.191,21.431 C142.555,21.901 143.727,23.711 143.727,25.012 C143.727,25.357 143.575,25.447 143.575,26.286 C143.575,28.568 142.495,28.758 141.657,29.13 C141.381,29.25 140.966,29.452 140.728,29.587 C140.975,29.979 140.975,30.342 140.935,30.632 C141.137,30.621 141.234,30.688 141.362,30.808 C141.689,30.632 142.2,30.652 142.508,30.904 C143.078,30.702 143.604,30.915 143.964,30.959 C144.389,31.025 144.793,30.807 145.245,30.807 C146.191,30.807 147.047,31.331 148.224,31.331 C149.604,31.331 150.299,30.821 151.5,30.779 C152.105,30.758 152.623,30.697 153.292,30.353 C153.506,30.246 153.728,30.278 153.917,30.306 C154.466,29.377 156.385,29.407 156.657,29.312 C157.335,29.059 157.933,28.712 158.742,28.965 C159.2,28.401 159.849,28.512 160.065,28.576 C160.193,28.401 160.601,28.105 161.096,28.429 C161.454,28.035 161.959,27.924 162.446,28.001 C162.512,27.838 162.816,27.606 163.204,27.813 C163.645,27.558 164.121,27.578 164.449,27.598 C164.725,27.62 164.984,27.664 165.145,27.454 C165.566,26.896 166.115,26.095 167.441,26.095 C167.945,25.734 169.189,25.158 171.119,25.158 C172.544,25.158 173.095,25.844 173.095,26.949 C173.095,28.088 172.22,28.939 171.636,29.012 C170.591,29.13 170.083,29.366 169.373,29.693 C168.316,30.266 167.071,30.843 165.726,30.915 C165.515,31.395 165.202,31.439 164.896,31.531 C164.487,31.674 163.445,31.597 163.267,31.616 C162.882,32.316 161.921,32.41 161.488,32.442 C161.186,32.464 161.078,32.442 160.802,32.597 C160.43,32.844 159.964,32.806 159.481,32.65 C159.342,32.858 158.296,33.007 157.95,33.091 C157.114,33.285 156.422,33.557 155.613,33.821 C155.406,33.895 155.05,33.753 154.844,33.821 C154.477,33.926 154.358,34.074 153.885,34.271 C153.4,34.469 153.043,34.441 152.706,34.568 C152.364,34.682 151.858,35.044 151.16,35.217 C149.829,35.563 149.06,35.45 148.697,35.563 C148.114,35.749 148.042,36.045 147.507,36.216 C147.006,36.377 146.541,36.361 145.926,36.608 C145.829,36.881 145.71,37.472 145.602,38.176 C145.526,38.779 145.172,39.768 145.106,39.959 C144.849,40.735 144.625,41.413 144.625,42.312 C144.625,43.05 144.471,43.032 144.471,43.468 C144.536,43.556 144.937,43.996 144.49,44.512 C144.741,45 145.09,46.342 144.528,46.603 C144.465,47.835 143.856,48.232 143.856,48.999 C143.856,49.543 144.136,49.775 144.136,50.313 C144.136,50.967 143.557,51.743 143.519,51.843 C144.098,52.456 143.128,52.925 143.303,53.423 C143.303,53.423 143.302,53.467 143.283,53.47 C144.103,54.043 143.703,54.606 143.703,55.435 C143.703,56.104 143.811,57.084 143.932,57.6 C144.074,58.088 143.952,58.764 143.952,58.97 C143.952,59.571 144.49,60.022 143.919,61.255 C144.036,61.473 144.168,62.099 143.832,62.413 C144.136,63.019 144.208,63.814 143.984,64.919 C144.299,65.56 144.766,66.668 144.074,67.759 C144.209,67.91 144.276,68.117 144.276,68.297 C144.276,68.658 144.157,68.848 144.157,69.115 C144.157,70.347 144.849,70.826 144.849,71.658 C144.849,71.837 144.773,72.381 144.773,72.457 C145.161,73.179 144.969,73.877 145.032,74.287 C145.053,74.422 145.258,74.662 145.321,75.015 C145.382,75.357 145.289,75.83 145.332,75.998 C145.372,76.317 145.623,76.727 145.581,77.346 C145.808,77.328 146.211,77.294 146.506,77.606 C146.982,78.076 147.348,78.48 147.822,78.743 C148.46,79.165 150.174,79.437 150.573,80.11 C150.801,80.082 152.386,79.794 152.462,79.785 C152.848,79.687 153.2,79.466 153.885,79.352 C154.69,79.202 155.597,79.237 155.962,79.237 C156.786,79.237 157.217,78.48 158.769,78.48 C158.953,78.48 159.689,78.48 159.849,78.458 C160.033,77.982 160.613,77.966 160.971,77.823 C161.488,77.606 161.908,77.166 162.684,76.924 C163.38,76.712 164.332,76.859 164.701,76.712 C164.754,76.517 164.915,76.361 165.125,76.308 C165.674,76.145 165.982,75.874 166.546,75.817 C166.687,75.272 167.16,75.16 167.566,75.357 C168.272,74.769 168.856,74.337 169.754,73.983 C170.025,72.291 170.567,72.115 171.69,71.987 C173.655,71.756 174.245,69.859 174.853,69.017 C175.162,68.574 175.614,68.502 175.951,68.254 C176.233,68.06 176.382,67.816 176.62,67.566 C177.094,67.088 177.933,66.868 178.095,66.455 C178.095,66.311 177.719,65.266 177.719,64.828 C177.719,63.884 178.606,63.211 179.305,62.754 C179.737,62.413 180.699,61.574 180.9,60.431 C180.991,60.041 181.212,59.896 181.42,59.841 C181.371,58.354 182.219,56.724 183.082,56.158 C182.907,55.763 182.969,55.391 183.273,55.21 C183.273,55.041 183.185,54.459 183.185,54.152 C183.185,53.56 183.953,52.694 183.953,52.065 C183.953,51.577 183.742,51.267 183.742,50.601 C183.742,50.542 183.78,50.3 183.78,50.085 C183.78,49.731 183.544,48.999 183.544,48.523 C183.544,47.397 184.281,46.678 184.905,46.32 C184.905,46.32 184.535,45.382 184.586,45.108 C184.614,44.829 184.803,43.799 184.654,43.556 C184.509,43.3 183.977,42.414 183.784,42.048 C183.403,41.24 183.721,39.096 183.445,38.478 C183.293,38.109 183.101,37.542 182.995,37.309 C182.892,37.065 182.578,35.713 182.578,34.884 C182.578,34.768 182.595,34.288 183.139,33.487 C184.509,31.458 186.351,32.087 186.672,32.683 C186.995,32.833 187.124,32.985 187.317,33.425 C187.512,33.916 187.958,35.147 188.116,35.582 C188.298,35.749 188.553,36.054 188.553,36.492 C188.564,36.649 189.022,38.06 189.022,38.06 C189.086,38.16 189.982,39.266 189.961,39.687 C189.942,40.105 189.942,40.383 189.938,40.723 C189.929,41.127 190.242,42.49 190.187,42.869 Z" id="Fill-5" fill="#FFFFFE" fill-rule="nonzero"></path>
        </g>
    </g>
</svg>